<svg enable-background="new 0 0 511.51 511.51" viewBox="0 0 511.51 511.51" width="100" fill="#fff" xmlns="http://www.w3.org/2000/svg">
    <path d="m466.143 474.241c-5.036-35.6-19.342-69.722-41.111-98.33-5.874-7.716-17.81 1.366-11.938 9.083 14.187 18.645 25.063 39.849 31.799 62.293.314 1.042.899 3.137.899 3.137-.008 0-.015 0-.023 0-18.787 0-37.705 3.074-55.269 9.023-10.684 4.147-18.72 5.693-28.231-1.626-14.627-11.253-29.568-10.922-45.338-1.418-7.602 4.581-14.879 10.962-23.414 13.85-11.607 3.929-19.403-2.345-18.681-13.861.456-7.269 2.122-14.359 4.951-21.074 11.898-28.252.181-44.796-27.377-55.377-10.222-3.926-19.876-7.634-23.999-15.291-3.748-6.958-2.514-17.036 3.667-29.952 4.65-9.717 10.368-18.991 17.021-27.611 50.528-1.673 100.033 17.057 138.161 49.983 9.39 8.108 18.744-3.392 9.985-11.193-21.81-19.427-47.014-34.708-74.906-43.738-18.906-6.121-38.974-9.607-59.085-10.355v-27.884l5.164-5.108c7.107 6.904 21.119 17.545 39.987 17.545 27.333 0 44.482-22.332 45.198-23.283 1.99-2.639 2.017-6.269.068-8.938-10.511-14.4-29.054-23.847-46.824-23.336l6.206-6.138c16.122.726 32.95-4.182 44.561-15.778 19.333-19.309 15.648-47.219 15.482-48.398-.461-3.27-3.006-5.853-6.269-6.362-1.167-.182-28.841-4.245-48.553 15.443-15.994 15.975-16.549 36.011-15.92 44.58l-39.1 38.676v-91.063c21.212.831 43.775-6.93 58.986-22.141 27.251-27.25 21.632-65.514 21.379-67.13-.511-3.262-3.095-5.806-6.364-6.266-1.431-.203-31.21-4.125-56.539 12.74-2.888-12.41-8.359-24.111-16.153-34.376-10.85-14.29-25.966-26.172-42.495-33.426-7.069-3.391-11.546 1.323-14.824 7.198-5.748 9.164-10.211 19.025-13.267 29.312-2.762 9.295 11.618 13.569 14.379 4.271 2.634-8.868 6.47-17.38 11.404-25.307 12.8 6.345 24.355 15.827 32.855 27.022 8.169 10.76 13.287 23.404 14.911 36.738-16.582 18.529-19.256 41.723-19.283 54.569-19.488-11.646-36.108-29.448-41.559-51.991-2.279-9.425-16.86-5.901-14.58 3.525 7.011 28.993 29.7 52.757 56.148 65.521v53.96l-19.125-19.346c.384-8.518-.478-29.213-15.802-44.517-19.327-19.304-47.262-15.625-48.44-15.459-3.27.46-5.853 3.004-6.364 6.266-.183 1.167-4.252 28.817 15.465 48.51 11.992 11.411 28.127 17.107 44.622 15.896l29.644 29.987v64.444c-113.248 3.564-205.018 99.712-204.987 212.432 0 9.474 15 9.679 15 .005-.006-19.115 2.856-38.63 8.352-56.873 10.901-1.907 27.435 1.391 34.217 10.847 11.934 16.635 20.076 25.589 41.647 27.047 13.093.885 26.026 9.85 32.184 22.308 3.955 8.002 18.269 3.108 13.447-6.646-8.577-17.353-26.091-29.375-44.62-30.627-16.819-1.136-21.658-8.54-30.47-20.824-8.506-11.857-24.292-18.484-41.276-17.711 25.646-65.548 88.316-114.274 158.106-123.423-4.224 6.408-8.015 13.075-11.307 19.953-8.364 17.479-9.489 32.127-3.344 43.539 6.76 12.553 20.078 17.668 31.828 22.181 18.954 7.28 27.323 15.638 18.933 35.55-3.484 8.271-5.537 17.004-6.099 25.959-1.39 22.134 17.361 36.151 38.46 29.008 9.783-3.311 17.631-9.957 26.348-15.211 10.191-6.141 18.759-6.994 28.447.459 13.274 10.214 27.119 10.229 42.191 3.945 17.169-5.815 35.763-8.608 54.114-8.177 2.536 12.718 3.815 25.734 3.816 38.702 0 9.697 15 9.696 15-.001.003-10.024-.704-20.097-2.096-29.941zm-128.697-225.753c-5.437 5.136-15.805 12.849-29.04 12.849-13.359 0-23.796-7.857-29.185-12.985 5.063-5.061 14.993-12.609 29.185-12.609 13.468 0 23.706 7.642 29.04 12.745zm-152.857-77.69c-9.535-9.523-11.353-22.18-11.506-29.547 7.442.177 20.194 2.015 29.646 11.456 9.44 9.428 11.258 22.348 11.439 29.778-7.152-.005-19.559-1.679-29.579-11.687zm144.287-.638c9.528-9.517 22.188-11.339 29.572-11.496-.208 7.468-2.077 20.243-11.433 29.587-9.451 9.439-22.404 11.251-29.845 11.429-.004-7.151 1.672-19.499 11.706-29.52zm-48.103-81.979c15.849-15.828 37.953-17.626 48.437-17.473.233 10.364-1.446 32.173-17.569 48.276-17.018 16.996-38.322 18.269-48.354 17.766-.172-10.384 1.541-32.643 17.486-48.569z"/>
    <path d="m193.626 248.18c-9.652 0-9.668 15 0 15 9.652 0 9.668-15 0-15z"/>
    <path d="m403.895 221.401c9.652 0 9.668-15 0-15-9.651 0-9.667 15 0 15z"/>
    <path d="m147.255 83.18c9.652 0 9.668-15 0-15-9.652 0-9.668 15 0 15z"/>
    <path d="m306.755 19.18c9.652 0 9.668-15 0-15-9.652 0-9.668 15 0 15z"/>
    <path d="m388.896 111.233c9.652 0 9.668-15 0-15-9.652 0-9.668 15 0 15z"/>
    <path d="m124.909 201.085c9.652 0 9.668-15 0-15-9.651 0-9.667 15 0 15z"/>
</svg>