<svg enable-background="new 0 0 512 512" viewBox="0 0 512 512" width="100" fill="#fff" xmlns="http://www.w3.org/2000/svg">
    <path d="m482 176h-23.245c15.895-14.289 25.913-34.994 25.913-58 0-43.01-34.991-78-78-78s-78 34.99-78 78c0 23.006 10.018 43.711 25.913 58h-53.586c-5.523 0-10 4.478-10 10s4.477 10 10 10h181.005c5.514 0 10 4.486 10 10s-4.486 10-10 10h-452c-5.514 0-10-4.486-10-10s4.486-10 10-10h180.995c5.523 0 10-4.478 10-10s-4.477-10-10-10h-53.577c15.895-14.289 25.913-34.994 25.913-58 0-43.01-34.991-78-78-78s-78 34.99-78 78c0 23.006 10.018 43.711 25.913 58h-23.244c-16.542 0-30 13.458-30 30s13.458 30 30 30h208.485l-130.405 220.917c-1.825 3.091-1.853 6.924-.072 10.041 1.78 3.118 5.094 5.042 8.684 5.042h278.617c3.59 0 6.904-1.924 8.684-5.042 1.78-3.117 1.752-6.95-.072-10.041l-130.406-220.917h208.485c16.542 0 30-13.458 30-30s-13.458-30-30-30zm-133.332-58c0-31.981 26.019-58 58-58s58 26.019 58 58-26.019 58-58 58-58-26.019-58-58zm-301.336 0c0-31.981 26.019-58 58-58s58 26.019 58 58-26.019 58-58 58-58-26.019-58-58zm86.875 334 121.793-206.328 121.793 206.328z"/>
    <circle cx="256" cy="186" r="10"/>
</svg>